<?xml version="1.0" encoding="UTF-8"?>
<!DOCTYPE score-partwise PUBLIC "-//Recordare//DTD MusicXML 3.1 Partwise//EN" "http://www.musicxml.org/dtds/partwise.dtd">
<score-partwise version="3.1">
  <part-list>
    <score-part id="P1">
      <part-name>Voice</part-name>
    </score-part>
  </part-list>
  <part id="P1">
 <measure number="1">
      <attributes>
        <divisions>4</divisions>
        <key>
          <fifths>3</fifths>
        </key>
        <time>
          <beats>4</beats>
          <beat-type>4</beat-type>
        </time>
        <clef>
          <sign>G</sign>
          <line>2</line>
        </clef>
      </attributes>
      <direction placement="above">
        <direction-type>
          <words>Ai! lau-ri-ë lan-tar</words>
        </direction-type>
      </direction>
      <harmony>
        <root>
          <root-step>A</root-step>
        </root>
        <kind>major</kind>
      </harmony>
      <note>
        <pitch>
          <step>A</step>
          <octave>4</octave>
        </pitch>
        <duration>4</duration>
        <type>whole</type>
      </note>
    </measure>
    <!-- Measure 2 -->
    <measure number="2">
      <direction placement="above">
        <direction-type>
          <words>las-si sú-ri-nen,</words>
        </direction-type>
      </direction>
      <harmony>
        <root>
          <root-step>F</root-step>
        </root>
        <kind>minor</kind>
      </harmony>
      <note>
        <pitch>
          <step>F</step>
          <alter>1</alter>
          <octave>4</octave>
        </pitch>
        <duration>4</duration>
        <type>whole</type>
      </note>
    </measure>
    <!-- Measure 3 -->
    <measure number="3">
      <harmony>
        <root>
          <root-step>E</root-step>
        </root>
        <kind>major</kind>
      </harmony>
      <note>
        <pitch>
          <step>E</step>
          <octave>4</octave>
        </pitch>
        <duration>4</duration>
        <type>whole</type>
      </note>
    </measure>
    <!-- Measure 4 -->
    <measure number="4">
      <harmony>
        <root>
          <root-step>D</root-step>
        </root>
        <kind>major</kind>
      </harmony>
      <note>
        <pitch>
          <step>D</step>
          <octave>4</octave>
        </pitch>
        <duration>4</duration>
        <type>whole</type>
      </note>
    </measure>
 <!-- Measure 5 -->
    <measure number="5">
      <attributes>
        <divisions>4</divisions>
        <key>
          <fifths>3</fifths>
        </key>
        <time>
          <beats>4</beats>
          <beat-type>4</beat-type>
        </time>
        <clef>
          <sign>G</sign>
          <line>2</line>
        </clef>
      </attributes>
      <direction placement="above">
        <direction-type>
          <words>yé-ni ú-nó-ti-më</words>
        </direction-type>
      </direction>
      <harmony>
        <root>
          <root-step>A</root-step>
        </root>
        <kind>major</kind>
      </harmony>
      <note>
        <pitch>
          <step>A</step>
          <octave>4</octave>
        </pitch>
        <duration>4</duration>
        <type>whole</type>
      </note>
    </measure>
    <!-- Measure 6 -->
    <measure number="6">
      <direction placement="above">
        <direction-type>
          <words>ve rá-mar</words>
        </direction-type>
      </direction>
      <harmony>
        <root>
          <root-step>F</root-step>
        </root>
        <kind>minor</kind>
      </harmony>
      <note>
        <pitch>
          <step>F</step>
          <alter>1</alter>
          <octave>4</octave>
        </pitch>
        <duration>4</duration>
        <type>whole</type>
      </note>
    </measure>
    <!-- Measure 7 -->
    <measure number="7">
      <direction placement="above">
        <direction-type>
          <words>al-da-ron!</words>
        </direction-type>
      </direction>
      <harmony>
        <root>
          <root-step>E</root-step>
        </root>
        <kind>major</kind>
      </harmony>
      <note>
        <pitch>
          <step>E</step>
          <octave>4</octave>
        </pitch>
        <duration>4</duration>
        <type>whole</type>
      </note>
    </measure>
    <!-- Measure 8 -->
    <measure number="8">
      <harmony>
        <root>
          <root-step>D</root-step>
        </root>
        <kind>major</kind>
      </harmony>
      <note>
        <pitch>
          <step>D</step>
          <octave>4</octave>
        </pitch>
        <duration>4</duration>
        <type>whole</type>
      </note>
    </measure>
   <!-- Measure 9 -->
    <measure number="9">
      <attributes>
        <divisions>4</divisions>
        <key>
          <fifths>3</fifths>
        </key>
        <time>
          <beats>4</beats>
          <beat-type>4</beat-type>
        </time>
        <clef>
          <sign>G</sign>
          <line>2</line>
        </clef>
      </attributes>
      <direction placement="above">
        <direction-type>
          <words>Yé-ni ve lin-të</words>
        </direction-type>
      </direction>
      <harmony>
        <root>
          <root-step>A</root-step>
        </root>
        <kind>major</kind>
      </harmony>
      <note>
        <pitch>
          <step>A</step>
          <octave>4</octave>
        </pitch>
        <duration>4</duration>
        <type>whole</type>
      </note>
    </measure>
    <!-- Measure 10 -->
    <measure number="10">
      <direction placement="above">
        <direction-type>
          <words>yul-dar a-vá-ni-er</words>
        </direction-type>
      </direction>
      <harmony>
        <root>
          <root-step>F</root-step>
        </root>
        <kind>minor</kind>
      </harmony>
      <note>
        <pitch>
          <step>F</step>
          <alter>1</alter>
          <octave>4</octave>
        </pitch>
        <duration>4</duration>
        <type>whole</type>
      </note>
    </measure>
    <!-- Measure 11 -->
    <measure number="11">
      <direction placement="above">
        <direction-type>
          <words>mi o-ro-mar-di</words>
        </direction-type>
      </direction>
      <harmony>
        <root>
          <root-step>E</root-step>
        </root>
        <kind>major</kind>
      </harmony>
      <note>
        <pitch>
          <step>E</step>
          <octave>4</octave>
        </pitch>
        <duration>4</duration>
        <type>whole</type>
      </note>
    </measure>
    <!-- Measure 12 -->
    <measure number="12">
      <direction placement="above">
        <direction-type>
          <words>lis-se-mi-ru-vó-re-va</words>
        </direction-type>
      </direction>
      <harmony>
        <root>
          <root-step>D</root-step>
        </root>
        <kind>major</kind>
      </harmony>
      <note>
        <pitch>
          <step>D</step>
          <octave>4</octave>
        </pitch>
        <duration>4</duration>
        <type>whole</type>
      </note>
    </measure>
    <!-- Measure 13 -->
    <measure number="13">
      <direction placement="above">
        <direction-type>
          <words>Yé-ni ve lin-të</words>
        </direction-type>
      </direction>
      <harmony>
        <root>
          <root-step>A</root-step>
        </root>
        <kind>major</kind>
      </harmony>
      <note>
        <pitch>
          <step>A</step>
          <octave>4</octave>
        </pitch>
        <duration>4</duration>
        <type>whole</type>
      </note>
    </measure>
    <!-- Measure 14 -->
    <measure number="14">
      <direction placement="above">
        <direction-type>
          <words>yul-dar a-vá-ni-er</words>
        </direction-type>
      </direction>
      <harmony>
        <root>
          <root-step>F</root-step>
        </root>
        <kind>minor</kind>
      </harmony>
      <note>
        <pitch>
          <step>F</step>
          <alter>1</alter>
          <octave>4</octave>
        </pitch>
        <duration>4</duration>
        <type>whole</type>
      </note>
    </measure>
    <!-- Measure 15 -->
    <measure number="15">
      <direction placement="above">
        <direction-type>
          <words>mi o-ro-mar-di</words>
        </direction-type>
      </direction>
      <harmony>
        <root>
          <root-step>G</root-step>
        </root>
        <kind>diminished</kind>
      </harmony>
      <note>
        <pitch>
          <step>G</step>
          <alter>1</alter>
          <octave>4</octave>
        </pitch>
        <duration>4</duration>
        <type>whole</type>
      </note>
    </measure>
    <!-- Measure 16 -->
    <measure number="16">
      <direction placement="above">
        <direction-type>
          <words>lis-se-mi-ru-vó-re-va</words>
        </direction-type>
      </direction>
      <harmony>
        <root>
          <root-step>D</root-step>
        </root>
        <kind>minor</kind>
      </harmony>
      <note>
        <pitch>
          <step>D</step>
          <octave>4</octave>
        </pitch>
        <duration>4</duration>
        <type>whole</type>
      </note>
    </measure>
          <!-- Measure 17 -->
    <measure number="17">
      <attributes>
        <divisions>4</divisions>
        <key>
          <fifths>3</fifths>
        </key>
        <time>
          <beats>4</beats>
          <beat-type>4</beat-type>
        </time>
        <clef>
          <sign>G</sign>
          <line>2</line>
        </clef>
      </attributes>
      <direction placement="above">
        <direction-type>
          <words>An-dú-në pel-la,</words>
        </direction-type>
      </direction>
      <harmony>
        <root>
          <root-step>E</root-step>
        </root>
        <kind>major</kind>
      </harmony>
      <note>
        <pitch>
          <step>E</step>
          <octave>4</octave>
        </pitch>
        <duration>4</duration>
        <type>whole</type>
      </note>
    </measure>
    <!-- Measure 18 -->
    <measure number="18">
      <direction placement="above">
        <direction-type>
          <words>Var-do tel-lu-mar</words>
        </direction-type>
      </direction>
      <harmony>
        <root>
          <root-step>F</root-step>
        </root>
        <kind>minor</kind>
      </harmony>
      <note>
        <pitch>
          <step>F</step>
          <alter>1</alter>
          <octave>4</octave>
        </pitch>
        <duration>4</duration>
        <type>whole</type>
      </note>
    </measure>
    <!-- Measure 19 -->
    <measure number="19">
      <direction placement="above">
        <direction-type>
          <words>nu lui-ni yas-sen</words>
        </direction-type>
      </direction>
      <harmony>
        <root>
          <root-step>A</root-step>
        </root>
        <kind>major</kind>
      </harmony>
      <note>
        <pitch>
          <step>A</step>
          <octave>4</octave>
        </pitch>
        <duration>4</duration>
        <type>whole</type>
      </note>
    </measure>
    <!-- Measure 20 -->
    <measure number="20">
      <direction placement="above">
        <direction-type>
          <words>tin-ti-lar i e-le-ni</words>
        </direction-type>
      </direction>
      <harmony>
        <root>
          <root-step>F</root-step>
        </root>
        <kind>minor</kind>
      </harmony>
      <note>
        <pitch>
          <step>F</step>
          <alter>1</alter>
          <octave>4</octave>
        </pitch>
        <duration>4</duration>
        <type>whole</type>
      </note>
    </measure>
    <!-- Measure 21 -->
    <measure number="21">
      <direction placement="above">
        <direction-type>
          <words>An-dú-në pel-la,</words>
        </direction-type>
      </direction>
      <harmony>
        <root>
          <root-step>E</root-step>
        </root>
        <kind>major</kind>
      </harmony>
      <note>
        <pitch>
          <step>E</step>
          <octave>4</octave>
        </pitch>
        <duration>4</duration>
        <type>whole</type>
      </note>
    </measure>
    <!-- Measure 22 -->
    <measure number="22">
      <direction placement="above">
        <direction-type>
          <words>Var-do tel-lu-mar</words>
        </direction-type>
      </direction>
      <harmony>
        <root>
          <root-step>F</root-step>
        </root>
        <kind>minor</kind>
      </harmony>
      <note>
        <pitch>
          <step>F</step>
          <alter>1</alter>
          <octave>4</octave>
        </pitch>
        <duration>4</duration>
        <type>whole</type>
      </note>
    </measure>
    <!-- Measure 23 -->
    <measure number="23">
      <direction placement="above">
        <direction-type>
          <words>nu lui-ni yas-sen</words>
        </direction-type>
      </direction>
      <harmony>
        <root>
          <root-step>A</root-step>
        </root>
        <kind>major</kind>
      </harmony>
      <note>
        <pitch>
          <step>A</step>
          <octave>4</octave>
        </pitch>
        <duration>4</duration>
        <type>whole</type>
      </note>
    </measure>
    <!-- Measure 24 -->
    <measure number="24">
      <direction placement="above">
        <direction-type>
          <words>tin-ti-lar i e-le-ni</words>
        </direction-type>
      </direction>
      <harmony>
        <root>
          <root-step>G</root-step>
        </root>
        <kind>diminished</kind>
      </harmony>
      <note>
        <pitch>
          <step>G</step>
          <alter>1</alter>
          <octave>4</octave>
        </pitch>
        <duration>4</duration>
        <type>whole</type>
      </note>
    </measure>
    <!-- Measure 25 -->
    <measure number="25">
      <direction placement="above">
        <direction-type>
          <words>An-dú-në pel-la,</words>
        </direction-type>
      </direction>
      <harmony>
        <root>
          <root-step>E</root-step>
        </root>
        <kind>major</kind>
      </harmony>
      <note>
        <pitch>
          <step>E</step>
          <octave>4</octave>
        </pitch>
        <duration>4</duration>
        <type>whole</type>
      </note>
    </measure>
    <!-- Measure 26 -->
    <measure number="26">
      <direction placement="above">
        <direction-type>
          <words>Var-do tel-lu-mar</words>
        </direction-type>
      </direction>
      <harmony>
        <root>
          <root-step>F</root-step>
        </root>
        <kind>minor</kind>
      </harmony>
      <note>
        <pitch>
          <step>F</step>
          <alter>1</alter>
          <octave>4</octave>
        </pitch>
        <duration>4</duration>
        <type>whole</type>
      </note>
    </measure>
    <!-- Measure 27 -->
    <measure number="27">
      <direction placement="above">
        <direction-type>
          <words>nu lui-ni yas-sen</words>
        </direction-type>
      </direction>
      <harmony>
        <root>
          <root-step>A</root-step>
        </root>
        <kind>major</kind>
      </harmony>
      <note>
        <pitch>
          <step>A</step>
          <octave>4</octave>
        </pitch>
        <duration>4</duration>
        <type>whole</type>
      </note>
    </measure>
    <!-- Measure 28 -->
    <measure number="28">
      <direction placement="above">
        <direction-type>
          <words>tin-ti-lar i e-le-ni</words>
        </direction-type>
      </direction>
      <harmony>
        <root>
          <root-step>D</root-step>
        </root>
        <kind>minor</kind>
      </harmony>
      <note>
        <pitch>
          <step>D</step>
          <octave>4</octave>
        </pitch>
        <duration>4</duration>
        <type>whole</type>
      </note>
    </measure>
    <!-- Measure 29 -->
    <measure number="29">
      <attributes>
        <divisions>4</divisions>
        <key>
          <fifths>3</fifths>
        </key>
        <time>
          <beats>4</beats>
          <beat-type>4</beat-type>
        </time>
        <clef>
          <sign>G</sign>
          <line>2</line>
        </clef>
      </attributes>
      <direction placement="above">
        <direction-type>
          <words>ó-mar-yo ai-re-tá-ri-lí-ri-nen.</words>
        </direction-type>
      </direction>
      <harmony>
        <root>
          <root-step>E</root-step>
        </root>
        <kind>major</kind>
      </harmony>
      <note>
        <pitch>
          <step>E</step>
          <octave>4</octave>
        </pitch>
        <duration>4</duration>
        <type>whole</type>
      </note>
    </measure>
    <!-- Measure 30 -->
    <measure number="30">
      <direction placement="above">
        <direction-type>
          <words>F#m chord</words>
        </direction-type>
      </direction>
      <harmony>
        <root>
          <root-step>F</root-step>
        </root>
        <kind>minor</kind>
      </harmony>
      <note>
        <pitch>
          <step>F</step>
          <alter>1</alter>
          <octave>4</octave>
        </pitch>
        <duration>4</duration>
        <type>whole</type>
      </note>
    </measure>
    <!-- Measure 31 -->
    <measure number="31">
      <direction placement="above">
        <direction-type>
          <words>D chord</words>
        </direction-type>
      </direction>
      <harmony>
        <root>
          <root-step>D</root-step>
        </root>
        <kind>major</kind>
      </harmony>
      <note>
        <pitch>
          <step>D</step>
          <octave>4</octave>
        </pitch>
        <duration>4</duration>
        <type>whole</type>
      </note>
    </measure>
    <!-- Measure 32 -->
    <measure number="32">
      <direction placement="above">
        <direction-type>
          <words>F#m chord</words>
        </direction-type>
      </direction>
      <harmony>
        <root>
          <root-step>F</root-step>
        </root>
        <kind>minor</kind>
      </harmony>
      <note>
        <pitch>
          <step>F</step>
          <alter>1</alter>
          <octave>4</octave>
        </pitch>
        <duration>4</duration>
        <type>whole</type>
      </note>
    </measure>
    <!-- Measure 33 -->
    <measure number="33">
      <direction placement="above">
        <direction-type>
          <words>Sí man i yul-ma nin</words>
        </direction-type>
      </direction>
      <harmony>
        <root>
          <root-step>F</root-step>
        </root>
        <kind>minor</kind>
      </harmony>
      <note>
        <pitch>
          <step>F</step>
          <alter>1</alter>
          <octave>4</octave>
        </pitch>
        <duration>4</duration>
        <type>whole</type>
      </note>
    </measure>
    <!-- Measure 34 -->
    <measure number="34">
      <direction placement="above">
        <direction-type>
          <words>en-quan-tu-va?</words>
        </direction-type>
      </direction>
      <harmony>
        <root>
          <root-step>A</root-step>
        </root>
        <kind>major</kind>
      </harmony>
      <note>
        <pitch>
          <step>A</step>
          <octave>4</octave>
        </pitch>
        <duration>4</duration>
        <type>whole</type>
      </note>
    </measure>
    <!-- Measure 35 -->
    <measure number="35">
      <direction placement="above">
        <direction-type>
          <words>F#m chord</words>
        </direction-type>
      </direction>
      <harmony>
        <root>
          <root-step>F</root-step>
        </root>
        <kind>minor</kind>
      </harmony>
      <note>
        <pitch>
          <step>F</step>
          <alter>1</alter>
          <octave>4</octave>
        </pitch>
        <duration>4</duration>
        <type>whole</type>
      </note>
    </measure>
    <!-- Measure 36 -->
    <measure number="36">
      <direction placement="above">
        <direction-type>
          <words>D chord</words>
        </direction-type>
      </direction>
      <harmony>
        <root>
          <root-step>D</root-step>
        </root>
        <kind>major</kind>
      </harmony>
      <note>
        <pitch>
          <step>D</step>
          <octave>4</octave>
        </pitch>
        <duration>4</duration>
        <type>whole</type>
      </note>
    </measure>
        <!-- Measure 37 -->
    <measure number="37">
      <attributes>
        <divisions>4</divisions>
        <key>
          <fifths>3</fifths>
        </key>
        <time>
          <beats>4</beats>
          <beat-type>4</beat-type>
        </time>
        <clef>
          <sign>G</sign>
          <line>2</line>
        </clef>
      </attributes>
      <direction placement="above">
        <direction-type>
          <words>An sí Tin-tal-lë Var-da Oi-o-los-së-o</words>
        </direction-type>
      </direction>
      <harmony>
        <root>
          <root-step>F</root-step>
        </root>
        <kind>minor</kind>
      </harmony>
      <note>
        <pitch>
          <step>F</step>
          <alter>1</alter>
          <octave>4</octave>
        </pitch>
        <duration>4</duration>
        <type>whole</type>
      </note>
    </measure>
    <!-- Measure 38 -->
    <measure number="38">
      <direction placement="above">
        <direction-type>
          <words>Var-da chord</words>
        </direction-type>
      </direction>
      <harmony>
        <root>
          <root-step>A</root-step>
        </root>
        <kind>major</kind>
      </harmony>
      <note>
        <pitch>
          <step>A</step>
          <octave>4</octave>
        </pitch>
        <duration>4</duration>
        <type>whole</type>
      </note>
    </measure>
    <!-- Measure 39 -->
    <measure number="39">
      <direction placement="above">
        <direction-type>
          <words>ve fan-yar má-ryat</words>
        </direction-type>
      </direction>
      <harmony>
        <root>
          <root-step>E</root-step>
        </root>
        <kind>major</kind>
      </harmony>
      <note>
        <pitch>
          <step>E</step>
          <octave>4</octave>
        </pitch>
        <duration>4</duration>
        <type>whole</type>
      </note>
    </measure>
    <!-- Measure 40 -->
    <measure number="40">
      <direction placement="above">
        <direction-type>
          <words>E-len-tá-ri or-ta-në</words>
        </direction-type>
      </direction>
      <harmony>
        <root>
          <root-step>D</root-step>
        </root>
        <kind>major</kind>
      </harmony>
      <note>
        <pitch>
          <step>D</step>
          <octave>4</octave>
        </pitch>
        <duration>4</duration>
        <type>whole</type>
      </note>
    </measure>
    <!-- Measure 41 -->
    <measure number="41">
      <direction placement="above">
        <direction-type>
          <words>An sí Tin-tal-lë</words>
        </direction-type>
      </direction>
      <harmony>
        <root>
          <root-step>F</root-step>
        </root>
        <kind>minor</kind>
      </harmony>
      <note>
        <pitch>
          <step>F</step>
          <alter>1</alter>
          <octave>4</octave>
        </pitch>
        <duration>4</duration>
        <type>whole</type>
      </note>
    </measure>
    <!-- Measure 42 -->
    <measure number="42">
      <direction placement="above">
        <direction-type>
          <words>Var-da Oi-o-los-së-o</words>
        </direction-type>
      </direction>
      <harmony>
        <root>
          <root-step>A</root-step>
        </root>
        <kind>major</kind>
      </harmony>
      <note>
        <pitch>
          <step>A</step>
          <octave>4</octave>
        </pitch>
        <duration>4</duration>
        <type>whole</type>
      </note>
    </measure>
    <!-- Measure 43 -->
    <measure number="43">
      <direction placement="above">
        <direction-type>
          <words>ve fan-yar má-ryat</words>
        </direction-type>
      </direction>
      <harmony>
        <root>
          <root-step>E</root-step>
        </root>
        <kind>major</kind>
      </harmony>
      <note>
        <pitch>
          <step>E</step>
          <octave>4</octave>
        </pitch>
        <duration>4</duration>
        <type>whole</type>
      </note>
    </measure>
    <!-- Measure 44 -->
    <measure number="44">
      <direction placement="above">
        <direction-type>
          <words>E-len-tá-ri or-ta-në</words>
        </direction-type>
      </direction>
      <harmony>
        <root>
          <root-step>D</root-step>
        </root>
        <kind>major</kind>
      </harmony>
      <note>
        <pitch>
          <step>D</step>
          <octave>4</octave>
        </pitch>
        <duration>4</duration>
        <type>whole</type>
      </note>
    </measure>
    <!-- Measure 45 -->
    <measure number="45">
      <attributes>
        <divisions>4</divisions>
        <key>
          <fifths>3</fifths>
        </key>
        <time>
          <beats>4</beats>
          <beat-type>4</beat-type>
        </time>
        <clef>
          <sign>G</sign>
          <line>2</line>
        </clef>
      </attributes>
      <direction placement="above">
        <direction-type>
          <words>ar i-lyë ti-er un-du-lá-vë lum-bu-lë;</words>
        </direction-type>
      </direction>
      <harmony>
        <root>
          <root-step>F</root-step>
        </root>
        <kind>minor</kind>
      </harmony>
      <note>
        <pitch>
          <step>F</step>
          <alter>1</alter>
          <octave>4</octave>
        </pitch>
        <duration>4</duration>
        <type>whole</type>
      </note>
    </measure>
    <!-- Measure 46 -->
    <measure number="46">
      <direction placement="above">
        <direction-type>
          <words>A chord</words>
        </direction-type>
      </direction>
      <harmony>
        <root>
          <root-step>A</root-step>
        </root>
        <kind>major</kind>
      </harmony>
      <note>
        <pitch>
          <step>A</step>
          <octave>4</octave>
        </pitch>
        <duration>4</duration>
        <type>whole</type>
      </note>
    </measure>
    <!-- Measure 47 -->
    <measure number="47">
      <direction placement="above">
        <direction-type>
          <words>E chord</words>
        </direction-type>
      </direction>
      <harmony>
        <root>
          <root-step>E</root-step>
        </root>
        <kind>major</kind>
      </harmony>
      <note>
        <pitch>
          <step>E</step>
          <octave>4</octave>
        </pitch>
        <duration>4</duration>
        <type>whole</type>
      </note>
    </measure>
    <!-- Measure 48 -->
    <measure number="48">
      <direction placement="above">
        <direction-type>
          <words>D chord</words>
        </direction-type>
      </direction>
      <harmony>
        <root>
          <root-step>D</root-step>
        </root>
        <kind>major</kind>
      </harmony>
      <note>
        <pitch>
          <step>D</step>
          <octave>4</octave>
        </pitch>
        <duration>4</duration>
        <type>whole</type>
      </note>
    </measure>
    <!-- Measure 49 -->
    <measure number="49">
      <direction placement="above">
        <direction-type>
          <words>ar sin-da-no-rí-el-lo cai-ta mor-ni-ë</words>
        </direction-type>
      </direction>
      <harmony>
        <root>
          <root-step>F</root-step>
        </root>
        <kind>minor</kind>
      </harmony>
      <note>
        <pitch>
          <step>F</step>
          <alter>1</alter>
          <octave>4</octave>
        </pitch>
        <duration>4</duration>
        <type>whole</type>
      </note>
    </measure>
    <!-- Measure 50 -->
    <measure number="50">
      <direction placement="above">
        <direction-type>
          <words>A chord</words>
        </direction-type>
      </direction>
      <harmony>
        <root>
          <root-step>A</root-step>
        </root>
        <kind>major</kind>
      </harmony>
      <note>
        <pitch>
          <step>A</step>
          <octave>4</octave>
        </pitch>
        <duration>4</duration>
        <type>whole</type>
      </note>
    </measure>
    <!-- Measure 51 -->
    <measure number="51">
      <direction placement="above">
        <direction-type>
          <words>E chord</words>
        </direction-type>
      </direction>
      <harmony>
        <root>
          <root-step>E</root-step>
        </root>
        <kind>major</kind>
      </harmony>
      <note>
        <pitch>
          <step>E</step>
          <octave>4</octave>
        </pitch>
        <duration>4</duration>
        <type>whole</type>
      </note>
    </measure>
    <!-- Measure 52 -->
    <measure number="52">
      <direction placement="above">
        <direction-type>
          <words>D chord</words>
        </direction-type>
      </direction>
      <harmony>
        <root>
          <root-step>D</root-step>
        </root>
        <kind>major</kind>
      </harmony>
      <note>
        <pitch>
          <step>D</step>
          <octave>4</octave>
        </pitch>
        <duration>4</duration>
        <type>whole</type>
      </note>
    </measure>
         <!-- Measure 53 -->
    <measure number="53">
      <attributes>
        <divisions>4</divisions>
        <key>
          <fifths>3</fifths>
        </key>
        <time>
          <beats>4</beats>
          <beat-type>4</beat-type>
        </time>
        <clef>
          <sign>G</sign>
          <line>2</line>
        </clef>
      </attributes>
      <direction placement="above">
        <direction-type>
          <words>i fal-ma-lin-nar im-bë met, ar hí-si-ë</words>
        </direction-type>
      </direction>
      <harmony>
        <root>
          <root-step>F</root-step>
        </root>
        <kind>minor</kind>
      </harmony>
      <note>
        <pitch>
          <step>F</step>
          <alter>1</alter>
          <octave>4</octave>
        </pitch>
        <duration>4</duration>
        <type>whole</type>
      </note>
    </measure>
    <!-- Measure 54 -->
    <measure number="54">
      <direction placement="above">
        <direction-type>
          <words>A chord</words>
        </direction-type>
      </direction>
      <harmony>
        <root>
          <root-step>A</root-step>
        </root>
        <kind>major</kind>
      </harmony>
      <note>
        <pitch>
          <step>A</step>
          <octave>4</octave>
        </pitch>
        <duration>4</duration>
        <type>whole</type>
      </note>
    </measure>
    <!-- Measure 55 -->
    <measure number="55">
      <direction placement="above">
        <direction-type>
          <words>E chord</words>
        </direction-type>
      </direction>
      <harmony>
        <root>
          <root-step>E</root-step>
        </root>
        <kind>major</kind>
      </harmony>
      <note>
        <pitch>
          <step>E</step>
          <octave>4</octave>
        </pitch>
        <duration>4</duration>
        <type>whole</type>
      </note>
    </measure>
    <!-- Measure 56 -->
    <measure number="56">
      <direction placement="above">
        <direction-type>
          <words>D chord</words>
        </direction-type>
      </direction>
      <harmony>
        <root>
          <root-step>D</root-step>
        </root>
        <kind>major</kind>
      </harmony>
      <note>
        <pitch>
          <step>D</step>
          <octave>4</octave>
        </pitch>
        <duration>4</duration>
        <type>whole</type>
      </note>
    </measure>
    <!-- Measure 57 -->
    <measure number="57">
      <direction placement="above">
        <direction-type>
          <words>un-tú-pa Ca-la-cir-yo mí-ri oi-a-lë.</words>
        </direction-type>
      </direction>
      <harmony>
        <root>
          <root-step>D</root-step>
        </root>
        <kind>major</kind>
      </harmony>
      <note>
        <pitch>
          <step>D</step>
          <octave>4</octave>
        </pitch>
        <duration>4</duration>
        <type>whole</type>
      </note>
    </measure>
    <!-- Measure 58 -->
    <measure number="58">
      <direction placement="above">
        <direction-type>
          <words>F#m chord</words>
        </direction-type>
      </direction>
      <harmony>
        <root>
          <root-step>F</root-step>
        </root>
        <kind>minor</kind>
      </harmony>
      <note>
        <pitch>
          <step>F</step>
          <alter>1</alter>
          <octave>4</octave>
        </pitch>
        <duration>4</duration>
        <type>whole</type>
      </note>
    </measure>
    <!-- Measure 59 -->
    <measure number="59">
      <direction placement="above">
        <direction-type>
          <words>G#dim chord</words>
        </direction-type>
      </direction>
      <harmony>
        <root>
          <root-step>G</root-step>
        </root>
        <kind>diminished</kind>
      </harmony>
      <note>
        <pitch>
          <step>G</step>
          <alter>1</alter>
          <octave>4</octave>
        </pitch>
        <duration>4</duration>
        <type>whole</type>
      </note>
    </measure>
    <!-- Measure 60 -->
    <measure number="60">
      <direction placement="above">
        <direction-type>
          <words>Dm chord</words>
        </direction-type>
      </direction>
      <harmony>
        <root>
          <root-step>D</root-step>
        </root>
        <kind>minor</kind>
      </harmony>
      <note>
        <pitch>
          <step>D</step>
          <octave>4</octave>
        </pitch>
        <duration>4</duration>
        <type>whole</type>
      </note>
    </measure>
      <!-- Measure 61 -->
    <measure number="61">
      <attributes>
        <divisions>4</divisions>
        <key>
          <fifths>3</fifths>
        </key>
        <time>
          <beats>4</beats>
          <beat-type>4</beat-type>
        </time>
        <clef>
          <sign>G</sign>
          <line>2</line>
        </clef>
      </attributes>
      <direction placement="above">
        <direction-type>
          <words>Sí van-wa ná, Ró-mel-lo van-wa, Va-li-mar!</words>
        </direction-type>
      </direction>
      <harmony>
        <root>
          <root-step>A</root-step>
        </root>
        <kind>major</kind>
      </harmony>
      <note>
        <pitch>
          <step>A</step>
          <octave>4</octave>
        </pitch>
        <duration>4</duration>
        <type>whole</type>
      </note>
    </measure>
    <!-- Measure 62 -->
    <measure number="62">
      <direction placement="above">
        <direction-type>
          <words>F#m chord</words>
        </direction-type>
      </direction>
      <harmony>
        <root>
          <root-step>F</root-step>
        </root>
        <kind>minor</kind>
      </harmony>
      <note>
        <pitch>
          <step>F</step>
          <alter>1</alter>
          <octave>4</octave>
        </pitch>
        <duration>4</duration>
        <type>whole</type>
      </note>
    </measure>
    <!-- Measure 63 -->
    <measure number="63">
      <direction placement="above">
        <direction-type>
          <words>E chord</words>
        </direction-type>
      </direction>
      <harmony>
        <root>
          <root-step>E</root-step>
        </root>
        <kind>major</kind>
      </harmony>
      <note>
        <pitch>
          <step>E</step>
          <octave>4</octave>
        </pitch>
        <duration>4</duration>
        <type>whole</type>
      </note>
    </measure>
    <!-- Measure 64 -->
    <measure number="64">
      <direction placement="above">
        <direction-type>
          <words>D chord</words>
        </direction-type>
      </direction>
      <harmony>
        <root>
          <root-step>D</root-step>
        </root>
        <kind>major</kind>
      </harmony>
      <note>
        <pitch>
          <step>D</step>
          <octave>4</octave>
        </pitch>
        <duration>4</duration>
        <type>whole</type>
      </note>
    </measure>
    <!-- Measure 65 -->
    <measure number="65">
      <direction placement="above">
        <direction-type>
          <words>Na-má-ri-ë! Nai hi-ru-va-lyë Va-li-mar.</words>
        </direction-type>
      </direction>
      <harmony>
        <root>
          <root-step>A</root-step>
        </root>
        <kind>major</kind>
      </harmony>
      <note>
        <pitch>
          <step>A</step>
          <octave>4</octave>
        </pitch>
        <duration>4</duration>
        <type>whole</type>
      </note>
    </measure>
    <!-- Measure 66 -->
    <measure number="66">
      <direction placement="above">
        <direction-type>
          <words>F#m chord</words>
        </direction-type>
      </direction>
      <harmony>
        <root>
          <root-step>F</root-step>
        </root>
        <kind>minor</kind>
      </harmony>
      <note>
        <pitch>
          <step>F</step>
          <alter>1</alter>
          <octave>4</octave>
        </pitch>
        <duration>4</duration>
        <type>whole</type>
      </note>
    </measure>
    <!-- Measure 67 -->
    <measure number="67">
      <direction placement="above">
        <direction-type>
          <words>E chord</words>
        </direction-type>
      </direction>
      <harmony>
        <root>
          <root-step>E</root-step>
        </root>
        <kind>major</kind>
      </harmony>
      <note>
        <pitch>
          <step>E</step>
          <octave>4</octave>
        </pitch>
        <duration>4</duration>
        <type>whole</type>
      </note>
    </measure>
    <!-- Measure 68 -->
    <measure number="68">
      <direction placement="above">
        <direction-type>
          <words>D chord</words>
        </direction-type>
      </direction>
      <harmony>
        <root>
          <root-step>D</root-step>
        </root>
        <kind>major</kind>
      </harmony>
      <note>
        <pitch>
          <step>D</step>
          <octave>4</octave>
        </pitch>
        <duration>4</duration>
        <type>whole</type>
      </note>
    </measure>
          <!-- Measure 69 -->
    <measure number="69">
      <attributes>
        <divisions>4</divisions>
        <key>
          <fifths>3</fifths>
        </key>
        <time>
          <beats>4</beats>
          <beat-type>4</beat-type>
        </time>
        <clef>
          <sign>G</sign>
          <line>2</line>
        </clef>
      </attributes>
      <direction placement="above">
        <direction-type>
          <words>Nai e-lyë hi-ru-va.</words>
        </direction-type>
      </direction>
      <harmony>
        <root>
          <root-step>A</root-step>
        </root>
        <kind>major</kind>
      </harmony>
      <note>
        <pitch>
          <step>A</step>
          <octave>4</octave>
        </pitch>
        <duration>4</duration>
        <type>whole</type>
      </note>
    </measure>
    <!-- Measure 70 -->
    <measure number="70">
      <direction placement="above">
        <direction-type>
          <words>F#m chord</words>
        </direction-type>
      </direction>
      <harmony>
        <root>
          <root-step>F</root-step>
        </root>
        <kind>minor</kind>
      </harmony>
      <note>
        <pitch>
          <step>F</step>
          <alter>1</alter>
          <octave>4</octave>
        </pitch>
        <duration>4</duration>
        <type>whole</type>
      </note>
    </measure>
    <!-- Measure 71 -->
    <measure number="71">
      <direction placement="above">
        <direction-type>
          <words>Na-má-ri-ë!</words>
        </direction-type>
      </direction>
      <harmony>
        <root>
          <root-step>D</root-step>
        </root>
        <kind>major</kind>
      </harmony>
      <note>
        <pitch>
          <step>D</step>
          <octave>4</octave>
        </pitch>
        <duration>4</duration>
        <type>whole</type>
      </note>
    </measure>
    <!-- Measure 72 -->
    <measure number="72">
      <direction placement="above">
        <direction-type>
          <words>F#m chord</words>
        </direction-type>
      </direction>
      <harmony>
        <root>
          <root-step>F</root-step>
        </root>
        <kind>minor</kind>
      </harmony>
      <note>
        <pitch>
          <step>F</step>
          <alter>1</alter>
          <octave>4</octave>
        </pitch>
        <duration>4</duration>
        <type>whole</type>
      </note>
    </measure>
  </part>
</score-partwise>
